<svg width="244" height="48" viewBox="0 0 244 48" fill="none" xmlns="http://www.w3.org/2000/svg">
<path opacity="0.9" fill-rule="evenodd" clip-rule="evenodd" d="M31.7727 18.7085C28.3618 14.8494 24.5956 11.3196 20.5237 8.16565C17.1185 10.7537 13.9411 13.6284 11.0263 16.7585C2.37591 25.9452 -1.60912 35.5275 1.60769 38.7216C4.85784 41.9444 14.5249 37.7609 23.7405 28.8287C26.7134 25.974 31.9712 18.9631 31.7727 18.7085Z" fill="#92E3A9"/>
<path fill-rule="evenodd" clip-rule="evenodd" d="M29.9937 16.7585C27.086 13.629 23.9157 10.7543 20.5176 8.16565C16.4342 11.3039 12.6685 14.8351 9.27462 18.7085C9.04885 18.9631 14.3067 25.9725 17.2735 28.8605C26.4602 37.7927 36.1273 41.9763 39.3775 38.7534C42.6276 35.5563 38.6138 25.974 29.9937 16.7585Z" fill="#92E3A9"/>
<path d="M83.5998 38L74.1598 25.6V38H67.3198V9.92H74.1598V22.24L83.5198 9.92H91.5598L80.6798 23.68L91.9598 38H83.5998ZM93.8505 26.8C93.8505 24.5067 94.2771 22.4933 95.1305 20.76C96.0105 19.0267 97.1971 17.6933 98.6905 16.76C100.184 15.8267 101.85 15.36 103.69 15.36C105.264 15.36 106.637 15.68 107.81 16.32C109.01 16.96 109.93 17.8 110.57 18.84V15.68H117.41V38H110.57V34.84C109.904 35.88 108.97 36.72 107.77 37.36C106.597 38 105.224 38.32 103.65 38.32C101.837 38.32 100.184 37.8533 98.6905 36.92C97.1971 35.96 96.0105 34.6133 95.1305 32.88C94.2771 31.12 93.8505 29.0933 93.8505 26.8ZM110.57 26.84C110.57 25.1333 110.09 23.7867 109.13 22.8C108.197 21.8133 107.05 21.32 105.69 21.32C104.33 21.32 103.17 21.8133 102.21 22.8C101.277 23.76 100.81 25.0933 100.81 26.8C100.81 28.5067 101.277 29.8667 102.21 30.88C103.17 31.8667 104.33 32.36 105.69 32.36C107.05 32.36 108.197 31.8667 109.13 30.88C110.09 29.8933 110.57 28.5467 110.57 26.84ZM135.999 38L129.199 28.64V38H122.359V8.4H129.199V24.76L135.959 15.68H144.399L135.119 26.88L144.479 38H135.999ZM153.925 19.4C154.725 18.1733 155.725 17.2133 156.925 16.52C158.125 15.8 159.459 15.44 160.925 15.44V22.68H159.045C157.339 22.68 156.059 23.0533 155.205 23.8C154.352 24.52 153.925 25.8 153.925 27.64V38H147.085V15.68H153.925V19.4ZM162.835 26.8C162.835 24.5067 163.262 22.4933 164.115 20.76C164.995 19.0267 166.182 17.6933 167.675 16.76C169.168 15.8267 170.835 15.36 172.675 15.36C174.248 15.36 175.622 15.68 176.795 16.32C177.995 16.96 178.915 17.8 179.555 18.84V15.68H186.395V38H179.555V34.84C178.888 35.88 177.955 36.72 176.755 37.36C175.582 38 174.208 38.32 172.635 38.32C170.822 38.32 169.168 37.8533 167.675 36.92C166.182 35.96 164.995 34.6133 164.115 32.88C163.262 31.12 162.835 29.0933 162.835 26.8ZM179.555 26.84C179.555 25.1333 179.075 23.7867 178.115 22.8C177.182 21.8133 176.035 21.32 174.675 21.32C173.315 21.32 172.155 21.8133 171.195 22.8C170.262 23.76 169.795 25.0933 169.795 26.8C169.795 28.5067 170.262 29.8667 171.195 30.88C172.155 31.8667 173.315 32.36 174.675 32.36C176.035 32.36 177.182 31.8667 178.115 30.88C179.075 29.8933 179.555 28.5467 179.555 26.84ZM198.183 18.84C198.823 17.8 199.743 16.96 200.943 16.32C202.143 15.68 203.517 15.36 205.063 15.36C206.903 15.36 208.57 15.8267 210.063 16.76C211.557 17.6933 212.73 19.0267 213.583 20.76C214.463 22.4933 214.903 24.5067 214.903 26.8C214.903 29.0933 214.463 31.12 213.583 32.88C212.73 34.6133 211.557 35.96 210.063 36.92C208.57 37.8533 206.903 38.32 205.063 38.32C203.49 38.32 202.117 38.0133 200.943 37.4C199.77 36.76 198.85 35.92 198.183 34.88V38H191.343V8.4H198.183V18.84ZM207.943 26.8C207.943 25.0933 207.463 23.76 206.503 22.8C205.57 21.8133 204.41 21.32 203.023 21.32C201.663 21.32 200.503 21.8133 199.543 22.8C198.61 23.7867 198.143 25.1333 198.143 26.84C198.143 28.5467 198.61 29.8933 199.543 30.88C200.503 31.8667 201.663 32.36 203.023 32.36C204.383 32.36 205.543 31.8667 206.503 30.88C207.463 29.8667 207.943 28.5067 207.943 26.8ZM217.132 26.8C217.132 24.5067 217.558 22.4933 218.412 20.76C219.292 19.0267 220.478 17.6933 221.972 16.76C223.465 15.8267 225.132 15.36 226.972 15.36C228.545 15.36 229.918 15.68 231.092 16.32C232.292 16.96 233.212 17.8 233.852 18.84V15.68H240.692V38H233.852V34.84C233.185 35.88 232.252 36.72 231.052 37.36C229.878 38 228.505 38.32 226.932 38.32C225.118 38.32 223.465 37.8533 221.972 36.92C220.478 35.96 219.292 34.6133 218.412 32.88C217.558 31.12 217.132 29.0933 217.132 26.8ZM233.852 26.84C233.852 25.1333 233.372 23.7867 232.412 22.8C231.478 21.8133 230.332 21.32 228.972 21.32C227.612 21.32 226.452 21.8133 225.492 22.8C224.558 23.76 224.092 25.0933 224.092 26.8C224.092 28.5067 224.558 29.8667 225.492 30.88C226.452 31.8667 227.612 32.36 228.972 32.36C230.332 32.36 231.478 31.8667 232.412 30.88C233.372 29.8933 233.852 28.5467 233.852 26.84Z" fill="#92E3A9"/>
</svg>
